<svg width="134" height="59" viewBox="0 0 134 59" fill="none" xmlns="http://www.w3.org/2000/svg">
<g filter="url(#filter0_d_8_5)">
<path d="M47.5 4.25C46.9167 5.58333 46.3958 6.75 45.9375 7.75C45.4792 8.75 45.0833 9.60417 44.75 10.3125C44.375 11.1042 44.0625 11.8125 43.8125 12.4375C43.6042 12.8958 43.3333 13.5208 43 14.3125C42.6667 15.0208 42.25 15.9583 41.75 17.125C41.2917 18.25 40.6875 19.7083 39.9375 21.5C39.5625 19.9583 39.1042 18.6042 38.5625 17.4375C38.0208 16.2708 37.4375 15.25 36.8125 14.375C36.1875 13.5 35.5208 12.7917 34.8125 12.25C34.1458 11.6667 33.4792 11.1875 32.8125 10.8125C31.2708 9.97917 29.6458 9.52083 27.9375 9.4375C25.6875 9.5625 23.9167 9.9375 22.625 10.5625C21.375 11.1458 20.4583 11.8333 19.875 12.625C19.2917 13.375 18.9792 14.1667 18.9375 15C18.8958 15.7917 19 16.4583 19.25 17C19.4583 17.5 20.1875 18.0833 21.4375 18.75C22.7292 19.4167 24.2708 20.1875 26.0625 21.0625C27.8958 21.8958 29.8542 22.8542 31.9375 23.9375C34.0208 24.9792 35.9375 26.1458 37.6875 27.4375C39.4792 28.6875 40.9792 30.0625 42.1875 31.5625C43.4375 33.0208 44.125 34.5833 44.25 36.25C44.375 38.375 44.3542 40.2917 44.1875 42C44.0208 43.7083 43.4375 45.1667 42.4375 46.375C41.4375 47.5833 39.875 48.5417 37.75 49.25C35.6667 49.9583 32.7708 50.3958 29.0625 50.5625C25.2292 50.7292 22.0833 50.5208 19.625 49.9375C17.1667 49.3542 15.1667 48.5625 13.625 47.5625C12.125 46.5625 11 45.4583 10.25 44.25C9.54167 43.0417 9.02083 41.8958 8.6875 40.8125C8.35417 39.6875 8.125 38.7292 8 37.9375C7.875 37.1042 7.66667 36.6042 7.375 36.4375C7.04167 36.2292 6.70833 36.0417 6.375 35.875C6.08333 35.7083 5.77083 35.5625 5.4375 35.4375C5.10417 35.2708 4.77083 35.125 4.4375 35L22.625 32.0625C21.5833 32.8958 20.7708 33.6667 20.1875 34.375C19.6458 35.0833 19.2292 35.7083 18.9375 36.25C18.6042 36.875 18.375 37.4583 18.25 38C18.1667 38.5833 18.3542 39.3125 18.8125 40.1875C19.2708 41.0625 19.8958 41.9167 20.6875 42.75C21.5208 43.5417 22.4792 44.2083 23.5625 44.75C24.6458 45.2917 25.7708 45.5208 26.9375 45.4375C28.3958 45.3125 29.5833 44.9583 30.5 44.375C31.4167 43.75 32.1042 42.9792 32.5625 42.0625C33.0625 41.1458 33.3542 40.1458 33.4375 39.0625C33.5208 37.9792 33.4167 36.9167 33.125 35.875C32.875 34.7917 32.4583 33.7917 31.875 32.875C31.2917 31.9167 30.6042 31.125 29.8125 30.5C29.1042 30 28 29.5208 26.5 29.0625C25.0417 28.6042 23.3958 28.1042 21.5625 27.5625C19.7708 27.0208 17.9167 26.3958 16 25.6875C14.125 24.9792 12.4167 24.1042 10.875 23.0625C9.375 22.0208 8.16667 20.7917 7.25 19.375C6.375 17.9583 6.04167 16.25 6.25 14.25C6.41667 12.5417 6.95833 11.125 7.875 10C8.83333 8.83333 10.0208 7.91667 11.4375 7.25C12.8958 6.54167 14.5 6.02083 16.25 5.6875C18.0417 5.35417 19.8542 5.16667 21.6875 5.125C23.5625 5.04167 25.3958 5.0625 27.1875 5.1875C29.0208 5.3125 30.6667 5.45833 32.125 5.625C33.5833 5.79167 34.8125 5.95833 35.8125 6.125C36.8542 6.25 37.5 6.33333 37.75 6.375C38.8333 6.45833 39.9167 6.4375 41 6.3125C41.9583 6.22917 43 6.04167 44.125 5.75C45.2917 5.41667 46.4167 4.91667 47.5 4.25ZM48.4375 21.25C49.5208 21.4583 50.4583 21.625 51.25 21.75C52.0833 21.8333 52.7917 21.9167 53.375 22C54.0417 22.0833 54.625 22.1458 55.125 22.1875C55.625 22.2292 56.2083 22.2708 56.875 22.3125C58 22.3542 59.5833 22.3542 61.625 22.3125C60.4167 22.2292 59.4583 22.5417 58.75 23.25C58.0833 23.9167 57.5833 24.6875 57.25 25.5625C56.8333 26.6042 56.6042 27.8125 56.5625 29.1875C56.4792 31.0208 56.5208 32.6875 56.6875 34.1875C56.8958 35.6458 57.25 36.8958 57.75 37.9375C58.2917 38.9375 59 39.6875 59.875 40.1875C60.75 40.6458 61.875 40.7708 63.25 40.5625C64.625 40.3542 65.6667 39.875 66.375 39.125C67.125 38.3333 67.6667 37.375 68 36.25C68.3333 35.0833 68.5208 33.7708 68.5625 32.3125C68.6458 30.8542 68.7083 29.3333 68.75 27.75C68.75 26.1667 68.7292 25.0417 68.6875 24.375C68.6875 23.6667 68.6667 23.2083 68.625 23C68.5833 22.7917 68.5208 22.7083 68.4375 22.75C68.3542 22.75 68.25 22.6458 68.125 22.4375C68.0417 22.2708 67.9167 22.1042 67.75 21.9375C67.625 21.7708 67.4583 21.5833 67.25 21.375C67.0417 21.125 66.8125 20.875 66.5625 20.625C67.6458 20.6667 68.6042 20.7083 69.4375 20.75C70.3125 20.75 71.0417 20.7708 71.625 20.8125C72.2917 20.8542 72.875 20.8958 73.375 20.9375C73.8333 20.9792 74.4375 21.0417 75.1875 21.125C75.8125 21.2083 76.625 21.2917 77.625 21.375C78.625 21.4583 79.8125 21.5833 81.1875 21.75C80.2292 21.9583 79.4583 22.2708 78.875 22.6875C78.2917 23.1042 77.8333 23.5208 77.5 23.9375C77.125 24.3958 76.8542 24.8958 76.6875 25.4375C76.5625 26.1458 76.5625 27.2292 76.6875 28.6875C76.7708 29.9792 76.9792 31.75 77.3125 34C77.6458 36.25 78.1667 39.2083 78.875 42.875L73.9375 45.8125L72.9375 37.5C71.7292 39.5417 70.4375 41.125 69.0625 42.25C67.7292 43.3333 66.4792 44.125 65.3125 44.625C63.9375 45.2083 62.6042 45.5417 61.3125 45.625C59.6042 45.625 58.125 45.5208 56.875 45.3125C55.6667 45.0625 54.625 44.75 53.75 44.375C52.875 44 52.1667 43.5833 51.625 43.125C51.125 42.625 50.75 42.125 50.5 41.625C49.9167 40.5833 49.6042 39.25 49.5625 37.625C49.5208 35.9583 49.5833 34.3125 49.75 32.6875C49.9167 31.0208 50.1042 29.5 50.3125 28.125C50.5208 26.75 50.5833 25.8125 50.5 25.3125C50.4167 24.9375 50.2917 24.5208 50.125 24.0625C49.9583 23.6875 49.75 23.2708 49.5 22.8125C49.25 22.3125 48.8958 21.7917 48.4375 21.25ZM82.4375 21.25C83.5208 21.4583 84.4583 21.625 85.25 21.75C86.0833 21.8333 86.7917 21.9167 87.375 22C88.0417 22.0833 88.625 22.1458 89.125 22.1875C89.625 22.2292 90.2083 22.2708 90.875 22.3125C92 22.3542 93.5833 22.3542 95.625 22.3125C94.4167 22.2292 93.4583 22.5417 92.75 23.25C92.0833 23.9167 91.5833 24.6875 91.25 25.5625C90.8333 26.6042 90.6042 27.8125 90.5625 29.1875C90.4792 31.0208 90.5208 32.6875 90.6875 34.1875C90.8958 35.6458 91.25 36.8958 91.75 37.9375C92.2917 38.9375 93 39.6875 93.875 40.1875C94.75 40.6458 95.875 40.7708 97.25 40.5625C98.625 40.3542 99.6667 39.875 100.375 39.125C101.125 38.3333 101.667 37.375 102 36.25C102.333 35.0833 102.521 33.7708 102.562 32.3125C102.646 30.8542 102.708 29.3333 102.75 27.75C102.75 26.1667 102.729 25.0417 102.688 24.375C102.688 23.6667 102.667 23.2083 102.625 23C102.583 22.7917 102.521 22.7083 102.438 22.75C102.354 22.75 102.25 22.6458 102.125 22.4375C102.042 22.2708 101.917 22.1042 101.75 21.9375C101.625 21.7708 101.458 21.5833 101.25 21.375C101.042 21.125 100.812 20.875 100.562 20.625C101.646 20.6667 102.604 20.7083 103.438 20.75C104.312 20.75 105.042 20.7708 105.625 20.8125C106.292 20.8542 106.875 20.8958 107.375 20.9375C107.833 20.9792 108.438 21.0417 109.188 21.125C109.812 21.2083 110.625 21.2917 111.625 21.375C112.625 21.4583 113.812 21.5833 115.188 21.75C114.229 21.9583 113.458 22.2708 112.875 22.6875C112.292 23.1042 111.833 23.5208 111.5 23.9375C111.125 24.3958 110.854 24.8958 110.688 25.4375C110.562 26.1458 110.562 27.2292 110.688 28.6875C110.771 29.9792 110.979 31.75 111.312 34C111.646 36.25 112.167 39.2083 112.875 42.875L107.938 45.8125L106.938 37.5C105.729 39.5417 104.438 41.125 103.062 42.25C101.729 43.3333 100.479 44.125 99.3125 44.625C97.9375 45.2083 96.6042 45.5417 95.3125 45.625C93.6042 45.625 92.125 45.5208 90.875 45.3125C89.6667 45.0625 88.625 44.75 87.75 44.375C86.875 44 86.1667 43.5833 85.625 43.125C85.125 42.625 84.75 42.125 84.5 41.625C83.9167 40.5833 83.6042 39.25 83.5625 37.625C83.5208 35.9583 83.5833 34.3125 83.75 32.6875C83.9167 31.0208 84.1042 29.5 84.3125 28.125C84.5208 26.75 84.5833 25.8125 84.5 25.3125C84.4167 24.9375 84.2917 24.5208 84.125 24.0625C83.9583 23.6875 83.75 23.2708 83.5 22.8125C83.25 22.3125 82.8958 21.7917 82.4375 21.25ZM116.125 22.0625L127.625 22.1875C126.958 24.7292 126.458 26.8958 126.125 28.6875C125.833 30.4792 125.646 31.9792 125.562 33.1875C125.396 34.5625 125.354 35.7292 125.438 36.6875C125.562 37.5625 125.771 38.5 126.062 39.5C126.312 40.3333 126.688 41.2917 127.188 42.375C127.688 43.4583 128.354 44.5417 129.188 45.625C128.688 45.4583 128.146 45.3333 127.562 45.25C126.979 45.1667 126.438 45.1042 125.938 45.0625C125.354 45.0208 124.771 45.0208 124.188 45.0625C123.604 45.1042 122.958 45.1667 122.25 45.25C121.667 45.3333 120.958 45.4375 120.125 45.5625C119.292 45.6875 118.417 45.8542 117.5 46.0625C118.125 44.1875 118.604 42.5625 118.938 41.1875C119.312 39.8125 119.583 38.6667 119.75 37.75C119.917 36.6667 120.021 35.7917 120.062 35.125C120.062 34.2917 120.062 33.3542 120.062 32.3125C120.062 31.2292 120.062 30.1875 120.062 29.1875C120.062 28.1875 120.042 27.3125 120 26.5625C119.958 25.7708 119.875 25.2708 119.75 25.0625L119.125 24.4375C118.875 24.2292 118.5 23.9375 118 23.5625C117.542 23.1458 116.917 22.6458 116.125 22.0625ZM120.562 12.4375C121.438 11.9792 122.312 11.8542 123.188 12.0625C124.104 12.2708 124.812 12.6667 125.312 13.25C125.812 13.8333 125.979 14.5208 125.812 15.3125C125.688 16.1042 125.021 16.875 123.812 17.625C122.604 18.3333 121.542 18.5833 120.625 18.375C119.708 18.1667 119.062 17.7292 118.688 17.0625C118.312 16.3958 118.25 15.625 118.5 14.75C118.75 13.8333 119.438 13.0625 120.562 12.4375Z" fill="#000"/>
</g>
</svg>
